<svg width="32" height="29" viewBox="0 0 32 29" fill="none" xmlns="http://www.w3.org/2000/svg">
<path d="M13.2793 13.9175H19.5554" stroke="black" stroke-width="1.2" stroke-linecap="round" stroke-linejoin="round"/>
<path d="M13.2793 11.9556H19.5554" stroke="black" stroke-width="1.2" stroke-linecap="round" stroke-linejoin="round"/>
<path d="M15.0445 11.9556C15.7207 11.9556 16.3692 12.2242 16.8474 12.7024C17.3255 13.1805 17.5941 13.829 17.5941 14.5053C17.5941 15.1815 17.3255 15.83 16.8474 16.3081C16.3692 16.7863 15.7207 17.0549 15.0445 17.0549H13.2793L17.5941 20.9775" stroke="black" stroke-width="1.2" stroke-linecap="round" stroke-linejoin="round"/>
<path d="M12.4787 5.62043C12.4818 5.61895 12.4849 5.61747 12.488 5.61599L12.48 5.62399L12.4787 5.62043ZM12.4787 5.62043C11.3222 6.17232 10.2454 6.97862 9.28799 7.95999C8.57599 8.68798 7.92799 9.51198 7.36799 10.4H3.2C2.76 10.4 2.4 10.76 2.4 11.2C2.4 11.64 2.76 12 3.2 12H6.46399C5.56799 13.8 4.99999 15.752 4.83999 17.6H3.2C2.76 17.6 2.4 17.96 2.4 18.4C2.4 18.84 2.76 19.2 3.2 19.2H4.81599C5.12799 24.984 9.96799 27.2 16 27.2C17.72 27.2 19.352 27.016 20.792 26.624C21.3916 27.3089 22.1309 27.8574 22.9603 28.2327C23.7896 28.6081 24.6897 28.8015 25.6 28.7999C29.136 28.7999 32 25.936 32 22.4C32 19.336 29.84 16.768 26.952 16.144C26.32 12.88 24.504 9.50398 22.024 7.31199C21.24 6.62399 20.4 6.04799 19.504 5.62399L20.744 2.28C20.856 1.976 20.776 1.624 20.528 1.408C20.528 1.408 19.024 0 15.992 0C12.96 0 11.456 1.408 11.456 1.408C11.208 1.624 11.128 1.976 11.24 2.28L12.4787 5.62043ZM4.79999 27.1919C5.23999 27.1919 5.59999 27.552 5.59999 27.992C5.59999 28.4319 5.23999 28.7919 4.79999 28.7919C4.35999 28.7919 3.99999 28.4319 3.99999 27.992C3.99999 27.552 4.35999 27.1919 4.79999 27.1919ZM11.2 27.1919H7.19999C6.75999 27.1919 6.39999 27.552 6.39999 27.992C6.39999 28.4319 6.75999 28.7919 7.19999 28.7919H11.2C11.64 28.7919 12 28.4319 12 27.992C12 27.552 11.64 27.1919 11.2 27.1919ZM25.6 17.592C28.248 17.592 30.4 19.744 30.4 22.392C30.4 25.04 28.248 27.1919 25.6 27.1919C22.952 27.1919 20.8 25.04 20.8 22.392C20.8 19.744 22.952 17.592 25.6 17.592ZM25.288 16C24.648 13.208 23.08 10.376 20.968 8.50398C19.52 7.22399 17.824 6.39199 16 6.39199C13.912 6.39199 12 7.47199 10.432 9.07198C7.99199 11.568 6.39999 15.336 6.39999 18.592C6.39999 23.84 10.752 25.592 16 25.592C17.368 25.592 18.664 25.472 19.848 25.208C19.4189 24.3314 19.1971 23.3679 19.2 22.392C19.2001 20.7487 19.8323 19.1684 20.9656 17.9784C22.099 16.7885 23.6466 16.0801 25.288 16ZM0.799999 23.192C0.359999 23.192 0 23.552 0 23.992C0 24.432 0.359999 24.792 0.799999 24.792H3.99999C4.43999 24.792 4.79999 24.432 4.79999 23.992C4.79999 23.552 4.43999 23.192 3.99999 23.192H0.799999ZM24.8 19.992V22.392C24.8 22.832 25.16 23.192 25.6 23.192H28C28.44 23.192 28.8 22.832 28.8 22.392C28.8 21.952 28.44 21.592 28 21.592H26.4V19.992C26.4 19.552 26.04 19.192 25.6 19.192C25.16 19.192 24.8 19.552 24.8 19.992ZM0.799999 17.592C1.24 17.592 1.6 17.952 1.6 18.392C1.6 18.832 1.24 19.192 0.799999 19.192C0.359999 19.192 0 18.832 0 18.392C0 17.952 0.359999 17.592 0.799999 17.592ZM18.008 5.05599C18.28 4.32799 19.032 2.296 19.032 2.296C18.504 2 17.488 1.584 16 1.584C14.512 1.584 13.496 2 12.968 2.296L13.992 5.05599C14.648 4.87999 15.32 4.79199 16 4.79199C16.68 4.79199 17.36 4.88799 18.008 5.05599ZM3.2 2.392C3.63999 2.392 3.99999 2.75199 3.99999 3.19199C3.99999 3.63199 3.63999 3.99199 3.2 3.99199C2.76 3.99199 2.4 3.63199 2.4 3.19199C2.4 2.75199 2.76 2.392 3.2 2.392ZM9.59999 2.392H5.59999C5.15999 2.392 4.79999 2.75199 4.79999 3.19199C4.79999 3.63199 5.15999 3.99199 5.59999 3.99199H9.59999C10.04 3.99199 10.4 3.63199 10.4 3.19199C10.4 2.75199 10.04 2.392 9.59999 2.392Z" fill="black"/>
<path d="M12.4787 5.62043C12.4818 5.61895 12.4849 5.61747 12.488 5.61599L12.48 5.62399L12.4787 5.62043ZM12.4787 5.62043C11.3222 6.17232 10.2454 6.97862 9.28799 7.95999C8.57599 8.68798 7.92799 9.51198 7.36799 10.4H3.2C2.76 10.4 2.4 10.76 2.4 11.2C2.4 11.64 2.76 12 3.2 12H6.46399C5.56799 13.8 4.99999 15.752 4.83999 17.6H3.2C2.76 17.6 2.4 17.96 2.4 18.4C2.4 18.84 2.76 19.2 3.2 19.2H4.81599C5.12799 24.984 9.96799 27.2 16 27.2C17.72 27.2 19.352 27.016 20.792 26.624C21.3916 27.3089 22.1309 27.8574 22.9603 28.2327C23.7896 28.6081 24.6897 28.8015 25.6 28.7999C29.136 28.7999 32 25.936 32 22.4C32 19.336 29.84 16.768 26.952 16.144C26.32 12.88 24.504 9.50398 22.024 7.31199C21.24 6.62399 20.4 6.04799 19.504 5.62399L20.744 2.28C20.856 1.976 20.776 1.624 20.528 1.408C20.528 1.408 19.024 0 15.992 0C12.96 0 11.456 1.408 11.456 1.408C11.208 1.624 11.128 1.976 11.24 2.28L12.4787 5.62043ZM4.79999 27.1919C5.23999 27.1919 5.59999 27.552 5.59999 27.992C5.59999 28.4319 5.23999 28.7919 4.79999 28.7919C4.35999 28.7919 3.99999 28.4319 3.99999 27.992C3.99999 27.552 4.35999 27.1919 4.79999 27.1919ZM11.2 27.1919H7.19999C6.75999 27.1919 6.39999 27.552 6.39999 27.992C6.39999 28.4319 6.75999 28.7919 7.19999 28.7919H11.2C11.64 28.7919 12 28.4319 12 27.992C12 27.552 11.64 27.1919 11.2 27.1919ZM25.6 17.592C28.248 17.592 30.4 19.744 30.4 22.392C30.4 25.04 28.248 27.1919 25.6 27.1919C22.952 27.1919 20.8 25.04 20.8 22.392C20.8 19.744 22.952 17.592 25.6 17.592ZM25.288 16C24.648 13.208 23.08 10.376 20.968 8.50398C19.52 7.22399 17.824 6.39199 16 6.39199C13.912 6.39199 12 7.47199 10.432 9.07198C7.99199 11.568 6.39999 15.336 6.39999 18.592C6.39999 23.84 10.752 25.592 16 25.592C17.368 25.592 18.664 25.472 19.848 25.208C19.4189 24.3314 19.1971 23.3679 19.2 22.392C19.2001 20.7487 19.8323 19.1684 20.9656 17.9784C22.099 16.7885 23.6466 16.0801 25.288 16ZM0.799999 23.192C0.359999 23.192 0 23.552 0 23.992C0 24.432 0.359999 24.792 0.799999 24.792H3.99999C4.43999 24.792 4.79999 24.432 4.79999 23.992C4.79999 23.552 4.43999 23.192 3.99999 23.192H0.799999ZM24.8 19.992V22.392C24.8 22.832 25.16 23.192 25.6 23.192H28C28.44 23.192 28.8 22.832 28.8 22.392C28.8 21.952 28.44 21.592 28 21.592H26.4V19.992C26.4 19.552 26.04 19.192 25.6 19.192C25.16 19.192 24.8 19.552 24.8 19.992ZM0.799999 17.592C1.24 17.592 1.6 17.952 1.6 18.392C1.6 18.832 1.24 19.192 0.799999 19.192C0.359999 19.192 0 18.832 0 18.392C0 17.952 0.359999 17.592 0.799999 17.592ZM18.008 5.05599C18.28 4.32799 19.032 2.296 19.032 2.296C18.504 2 17.488 1.584 16 1.584C14.512 1.584 13.496 2 12.968 2.296L13.992 5.05599C14.648 4.87999 15.32 4.79199 16 4.79199C16.68 4.79199 17.36 4.88799 18.008 5.05599ZM3.2 2.392C3.63999 2.392 3.99999 2.75199 3.99999 3.19199C3.99999 3.63199 3.63999 3.99199 3.2 3.99199C2.76 3.99199 2.4 3.63199 2.4 3.19199C2.4 2.75199 2.76 2.392 3.2 2.392ZM9.59999 2.392H5.59999C5.15999 2.392 4.79999 2.75199 4.79999 3.19199C4.79999 3.63199 5.15999 3.99199 5.59999 3.99199H9.59999C10.04 3.99199 10.4 3.63199 10.4 3.19199C10.4 2.75199 10.04 2.392 9.59999 2.392Z" stroke="black"/>
</svg>
